<svg xmlns="http://www.w3.org/2000/svg" width="272" height="63" fill="none"><path fill="#17633D" d="M26.28 27.005a6.254 6.254 0 0 0-.87-1.932 5.56 5.56 0 0 0-1.409-1.444 6.045 6.045 0 0 0-1.914-.888 8.465 8.465 0 0 0-2.366-.313c-1.729 0-3.225.418-4.49 1.253-1.252.835-2.221 2.053-2.905 3.654-.685 1.59-1.027 3.52-1.027 5.795 0 2.285.33 4.234.992 5.846.66 1.613 1.618 2.842 2.87 3.69 1.254.846 2.773 1.27 4.56 1.27 1.577 0 2.911-.256 4.002-.766 1.102-.522 1.937-1.259 2.506-2.21.568-.951.852-2.07.852-3.358l1.601.191h-8.665v-6.282H35.38v4.716c0 3.19-.678 5.922-2.036 8.196-1.345 2.273-3.201 4.02-5.568 5.237-2.355 1.218-5.063 1.827-8.126 1.827-3.399 0-6.386-.736-8.961-2.21-2.575-1.473-4.582-3.573-6.02-6.299-1.44-2.737-2.158-5.986-2.158-9.744 0-2.923.435-5.516 1.305-7.778.87-2.274 2.082-4.2 3.636-5.777a15.716 15.716 0 0 1 5.43-3.584c2.064-.813 4.286-1.219 6.664-1.219 2.065 0 3.984.296 5.76.888 1.786.591 3.363 1.427 4.732 2.506 1.38 1.078 2.5 2.36 3.358 3.845.859 1.485 1.393 3.115 1.601 4.89h-8.717ZM40.459 51V15.364h14.72c2.669 0 4.972.481 6.909 1.444 1.949.951 3.45 2.32 4.507 4.106 1.055 1.775 1.583 3.88 1.583 6.317 0 2.47-.54 4.57-1.618 6.299-1.08 1.717-2.61 3.027-4.594 3.932-1.984.894-4.333 1.34-7.047 1.34h-9.31v-6.786h7.709c1.3 0 2.384-.168 3.254-.505.881-.348 1.548-.87 2-1.566.453-.707.68-1.612.68-2.714 0-1.102-.227-2.013-.68-2.732-.452-.73-1.119-1.276-2-1.636-.882-.37-1.966-.556-3.254-.556H49.07V51h-8.613ZM60.52 34.713 69.395 51h-9.396l-8.7-16.287h9.222ZM72.9 51V15.364H97.75v6.995H81.515v7.308h14.964v7.012H81.514v7.326H97.75V51H72.901Zm30.242 0V15.364h24.848v6.995h-16.234v7.308h14.964v7.012h-14.964v7.326h16.234V51h-24.848Zm60.572-35.636V51h-7.308l-14.182-20.567h-.226V51h-8.613V15.364h7.412l14.025 20.532h.296V15.364h8.596ZM169.131 51V15.364h14.86c2.668 0 4.901.377 6.699 1.13 1.81.755 3.167 1.81 4.072 3.168.916 1.357 1.374 2.929 1.374 4.715 0 1.357-.284 2.57-.852 3.637a7.514 7.514 0 0 1-2.349 2.627c-.998.696-2.152 1.184-3.463 1.462v.348a8.65 8.65 0 0 1 3.985 1.166c1.229.708 2.215 1.694 2.958 2.958.742 1.253 1.113 2.738 1.113 4.454 0 1.914-.487 3.626-1.461 5.134-.975 1.496-2.384 2.68-4.229 3.55-1.844.858-4.083 1.287-6.716 1.287h-15.991Zm8.613-6.943h5.325c1.867 0 3.242-.354 4.123-1.061.894-.708 1.34-1.694 1.34-2.958 0-.917-.214-1.706-.644-2.367-.429-.673-1.038-1.189-1.827-1.548-.788-.372-1.734-.557-2.836-.557h-5.481v8.491Zm0-14.042h4.768c.939 0 1.775-.157 2.505-.47.731-.313 1.3-.766 1.706-1.357.417-.592.626-1.305.626-2.14 0-1.195-.423-2.135-1.27-2.82-.847-.684-1.99-1.026-3.428-1.026h-4.907v7.813Zm57.561 3.167c0 3.92-.754 7.244-2.262 9.97-1.508 2.726-3.55 4.797-6.125 6.212-2.564 1.416-5.441 2.123-8.631 2.123-3.201 0-6.084-.713-8.648-2.14-2.563-1.427-4.599-3.498-6.107-6.212-1.497-2.726-2.245-6.044-2.245-9.953 0-3.921.748-7.245 2.245-9.97 1.508-2.727 3.544-4.797 6.107-6.213 2.564-1.415 5.447-2.123 8.648-2.123 3.19 0 6.067.708 8.631 2.123 2.575 1.416 4.617 3.486 6.125 6.212 1.508 2.726 2.262 6.05 2.262 9.97Zm-8.805 0c0-2.32-.33-4.28-.991-5.882-.65-1.6-1.59-2.813-2.819-3.636-1.218-.824-2.686-1.236-4.403-1.236-1.705 0-3.172.412-4.402 1.236-1.23.823-2.175 2.036-2.836 3.636-.65 1.601-.975 3.562-.975 5.882s.325 4.28.975 5.881c.661 1.601 1.606 2.813 2.836 3.637 1.23.824 2.697 1.235 4.402 1.235 1.717 0 3.185-.411 4.403-1.235 1.229-.824 2.169-2.036 2.819-3.637.661-1.6.991-3.561.991-5.881Zm20.542-17.818 6.508 11.258h.278l6.577-11.258h9.64l-10.753 17.818L270.393 51h-9.883l-6.682-11.38h-.278L246.868 51h-9.814l11.049-17.818-10.771-17.818h9.71Z"/><path stroke="#17633D" stroke-linecap="round" stroke-width="2" d="M60.608 10.717c-.46-1.012-.539-2.302-.212-3.354.516-1.663.961-4.08 3.024-4.323a34.576 34.576 0 0 1 2.997-.21c1.161-.024 2.387.21 3.5-.227.949-.372.396-.26.665 1.028.189.902.303 7.337.392 3.998-.104 3.895-1.917 5.757-5.333 5.867-.503.017-2.336-.101-2.613-.628-.245-.466.584-2.117.75-2.65.283-.913 3.427-4.721 4.352-4.74"/><path stroke="#17633D" stroke-linecap="round" stroke-width="2" d="M60.608 10.74c0-.794.663-2.298 1.015-3.002.189-.377.405-.682.645-1.03.246-.355.454-.779.775-1.064.111-.099.226-.328.31-.459.099-.153.262-.25.347-.413.134-.255.565-.455.812-.593.442-.25.991-.427 1.483-.44.28-.006.553-.051.843-.051.298 0 .633.11.918.195.24.071.506.3.585.56.055.179.14.365.344.381.137.01.33.382.45.301.14-.093.15-.477.179-.634.015-.082.054-.385.054-.137 0 .168.058.78-.24.78-.34 0-.664-.061-.959.115-.286.17-.66.476-.66-.04 0-.635.286-.61.89-.795.225-.07.458-.067.688-.11.174-.03.307-.11.488-.1.201.01.117.802.091.941-.053.29-.332.39-.522.58a3.017 3.017 0 0 0-.421.594c-.168.299-.56.471-.83.645-.522.336-1.2.835-1.52 1.383-.195.334-.4.64-.62.958-.166.241-.362.452-.41.76-.078.509-.396.946-.416 1.472-.004.113-.132.424 0 .504.402.246.771.02 1.116-.223.404-.286.691-.707 1.013-1.079.27-.312.55-.623.789-.96.431-.61.86-1.203 1.265-1.828.2-.31.363-.658.528-.987.09-.182.201-.082.275.026.109.158.178.185.178.39 0 .17.094.273.103.439.02.343 1.153.2.184.723-.631.34-.945.64-1.346 1.219-.236.341-.437.738-.748 1.027-.207.192-.47.42-.723.553-.41.216-.735.537-1.188.66"/></svg>