<svg width="272" height="63" viewBox="0 0 272 63" fill="none" xmlns="http://www.w3.org/2000/svg">
<path d="M26.2807 27.0046C26.0835 26.2738 25.7935 25.63 25.4107 25.0732C25.0279 24.5047 24.5581 24.0233 24.0012 23.6289C23.4444 23.2345 22.8064 22.9387 22.0872 22.7415C21.368 22.5327 20.5791 22.4283 19.7207 22.4283C17.9922 22.4283 16.4958 22.8459 15.2314 23.6811C13.9785 24.5163 13.0099 25.7344 12.3255 27.3352C11.641 28.9245 11.2988 30.8559 11.2988 33.1296C11.2988 35.4149 11.6294 37.3638 12.2907 38.9762C12.9519 40.5887 13.9089 41.8183 15.1618 42.6651C16.4146 43.512 17.9342 43.9354 19.7207 43.9354C21.2984 43.9354 22.6324 43.6802 23.7228 43.1697C24.8249 42.6477 25.6601 41.9111 26.2285 40.9599C26.7969 40.0086 27.0811 38.8892 27.0811 37.6016L28.682 37.793H20.0165V31.5114H35.3812V36.2269C35.3812 39.417 34.7026 42.1489 33.3453 44.4226C31.9997 46.6963 30.1436 48.4421 27.7772 49.6602C25.4223 50.8782 22.7136 51.4872 19.6511 51.4872C16.2522 51.4872 13.2651 50.7506 10.6898 49.2773C8.11452 47.8041 6.10766 45.7044 4.66921 42.9783C3.23076 40.2406 2.51154 36.9925 2.51154 33.234C2.51154 30.3107 2.94656 27.718 3.81658 25.456C4.68661 23.1823 5.89885 21.2566 7.4533 19.679C9.01935 18.1013 10.829 16.9065 12.8823 16.0945C14.9471 15.2824 17.1686 14.8764 19.5467 14.8764C21.6116 14.8764 23.5314 15.1722 25.3063 15.7638C27.0927 16.3555 28.6704 17.1907 30.0392 18.2695C31.4197 19.3484 32.5391 20.6302 33.3975 22.1151C34.256 23.5999 34.7896 25.2298 34.9984 27.0046H26.2807ZM40.4578 51V15.3636H55.1787C57.8468 15.3636 60.1495 15.8451 62.0867 16.8079C64.0356 17.7591 65.5379 19.128 66.5935 20.9144C67.6491 22.6893 68.1769 24.7947 68.1769 27.2308C68.1769 29.7017 67.6375 31.8014 66.5587 33.5298C65.4798 35.2467 63.9486 36.5575 61.9649 37.4624C59.9813 38.3556 57.6322 38.8022 54.9177 38.8022H45.6084V32.016H53.3169C54.6161 32.016 55.7007 31.8478 56.5708 31.5114C57.4524 31.1634 58.1194 30.6413 58.5718 29.9453C59.0242 29.2377 59.2504 28.3329 59.2504 27.2308C59.2504 26.1288 59.0242 25.2182 58.5718 24.4989C58.1194 23.7681 57.4524 23.2229 56.5708 22.8633C55.6891 22.4921 54.6045 22.3065 53.3169 22.3065H49.0711V51H40.4578ZM60.5207 34.7131L69.395 51H59.9987L51.2984 34.7131H60.5207ZM72.9012 51V15.3636H97.7492V22.3587H81.5145V29.6669H96.479V36.6793H81.5145V44.005H97.7492V51H72.9012ZM103.143 51V15.3636H127.991V22.3587H111.757V29.6669H126.721V36.6793H111.757V44.005H127.991V51H103.143ZM163.715 15.3636V51H156.407L142.225 30.4325H141.999V51H133.386V15.3636H140.798L154.823 35.8963H155.119V15.3636H163.715ZM169.131 51V15.3636H183.991C186.659 15.3636 188.892 15.7406 190.69 16.4947C192.5 17.2487 193.857 18.3043 194.762 19.6616C195.678 21.0188 196.136 22.5907 196.136 24.3771C196.136 25.7344 195.852 26.9466 195.284 28.0138C194.715 29.0695 193.932 29.9453 192.935 30.6413C191.937 31.3374 190.783 31.8246 189.472 32.103V32.451C190.91 32.5206 192.239 32.9092 193.457 33.6168C194.686 34.3245 195.672 35.3105 196.415 36.5749C197.157 37.8278 197.528 39.3126 197.528 41.0295C197.528 42.9435 197.041 44.6546 196.067 46.1626C195.092 47.6591 193.683 48.8423 191.838 49.7124C189.994 50.5708 187.755 51 185.122 51H169.131ZM177.744 44.0572H183.069C184.936 44.0572 186.311 43.7034 187.192 42.9957C188.086 42.2881 188.532 41.3021 188.532 40.0376C188.532 39.1212 188.318 38.3324 187.888 37.6712C187.459 36.9983 186.85 36.4821 186.061 36.1225C185.273 35.7513 184.327 35.5657 183.225 35.5657H177.744V44.0572ZM177.744 30.0149H182.512C183.451 30.0149 184.287 29.8583 185.017 29.5451C185.748 29.2319 186.317 28.7795 186.723 28.1879C187.14 27.5962 187.349 26.8828 187.349 26.0476C187.349 24.8527 186.926 23.9131 186.079 23.2287C185.232 22.5443 184.089 22.2021 182.651 22.2021H177.744V30.0149ZM235.305 33.1818C235.305 37.1027 234.551 40.4263 233.043 43.1523C231.535 45.8784 229.493 47.9491 226.918 49.3643C224.354 50.7796 221.477 51.4872 218.287 51.4872C215.086 51.4872 212.203 50.7738 209.639 49.3469C207.076 47.9201 205.04 45.8494 203.532 43.1349C202.035 40.4089 201.287 37.0911 201.287 33.1818C201.287 29.2609 202.035 25.9374 203.532 23.2113C205.04 20.4852 207.076 18.4145 209.639 16.9993C212.203 15.584 215.086 14.8764 218.287 14.8764C221.477 14.8764 224.354 15.584 226.918 16.9993C229.493 18.4145 231.535 20.4852 233.043 23.2113C234.551 25.9374 235.305 29.2609 235.305 33.1818ZM226.5 33.1818C226.5 30.8617 226.17 28.9013 225.509 27.3004C224.859 25.6996 223.919 24.4873 222.69 23.6637C221.472 22.8401 220.004 22.4283 218.287 22.4283C216.582 22.4283 215.115 22.8401 213.885 23.6637C212.655 24.4873 211.71 25.6996 211.049 27.3004C210.399 28.9013 210.074 30.8617 210.074 33.1818C210.074 35.5019 210.399 37.4624 211.049 39.0632C211.71 40.6641 212.655 41.8763 213.885 42.6999C215.115 43.5236 216.582 43.9354 218.287 43.9354C220.004 43.9354 221.472 43.5236 222.69 42.6999C223.919 41.8763 224.859 40.6641 225.509 39.0632C226.17 37.4624 226.5 35.5019 226.5 33.1818ZM247.042 15.3636L253.55 26.6218H253.828L260.405 15.3636H270.045L259.292 33.1818L270.393 51H260.51L253.828 39.62H253.55L246.868 51H237.054L248.103 33.1818L237.332 15.3636H247.042Z" fill="#17633D"/>
<path d="M60.6076 10.7174C60.1485 9.70493 60.069 8.41523 60.3955 7.36321C60.9117 5.70007 61.3572 3.2833 63.4205 3.04021C64.3292 2.93315 65.527 2.84876 66.4169 2.83025C67.578 2.80609 68.8041 3.03942 69.9163 2.60318C70.8657 2.23078 70.3131 2.34335 70.5823 3.63065C70.771 4.53289 70.8848 10.9678 70.9737 7.6289C70.87 11.5243 69.0567 13.3862 65.6415 13.4965C65.1381 13.5128 63.3054 13.3949 63.0279 12.8677C62.783 12.4023 63.612 10.7508 63.7772 10.2185C64.0608 9.30466 67.2049 5.49705 68.1304 5.4778" stroke="#17633D" stroke-width="2" stroke-linecap="round"/>
<path d="M60.6076 10.7391C60.6076 9.94628 61.2711 8.44208 61.6229 7.73849C61.8115 7.36111 62.0276 7.05636 62.2683 6.70865C62.5142 6.35349 62.7222 5.92939 63.0428 5.64439C63.1543 5.54528 63.2685 5.31634 63.3526 5.18541C63.4515 5.03155 63.6146 4.9341 63.6997 4.77233C63.8343 4.51667 64.2652 4.31713 64.5116 4.17852C64.954 3.92966 65.5033 3.75161 65.9946 3.73962C66.2751 3.73278 66.5483 3.68799 66.838 3.68799C67.1364 3.68799 67.4706 3.7985 67.756 3.88305C67.996 3.95417 68.2616 4.18367 68.3412 4.44244C68.3963 4.62154 68.4816 4.80829 68.6854 4.82396C68.8219 4.83446 69.0151 5.20563 69.1358 5.12517C69.2757 5.03187 69.2852 4.6477 69.3136 4.4912C69.3286 4.40875 69.3681 4.10637 69.3681 4.35351C69.3681 4.5219 69.4255 5.13378 69.1272 5.13378C68.7886 5.13378 68.4638 5.07305 68.1691 5.24852C67.8827 5.419 67.5093 5.72523 67.5093 5.20836C67.5093 4.57405 67.7948 4.59952 68.3985 4.41375C68.6245 4.34423 68.8574 4.3465 69.087 4.30474C69.2608 4.27315 69.3942 4.19484 69.5747 4.20434C69.776 4.21493 69.692 5.00642 69.6665 5.14525C69.6132 5.43523 69.3337 5.53545 69.1444 5.72471C68.9918 5.87735 68.829 6.12949 68.7227 6.31852C68.5545 6.6176 68.1636 6.7904 67.8937 6.96396C67.3712 7.29985 66.6929 7.79874 66.3733 8.34663C66.1784 8.68073 65.9735 8.98605 65.7537 9.30476C65.5873 9.54602 65.3908 9.75736 65.3435 10.0649C65.2652 10.5736 64.947 11.0108 64.9275 11.5365C64.9233 11.6496 64.7955 11.9607 64.9275 12.0414C65.3293 12.287 65.6981 12.0619 66.0434 11.8177C66.4467 11.5324 66.734 11.1112 67.056 10.7391C67.3262 10.4268 67.6054 10.1162 67.8449 9.77808C68.2764 9.16892 68.7046 8.57623 69.11 7.95076C69.3103 7.64169 69.4734 7.29269 69.6378 6.96396C69.7289 6.78166 69.8394 6.8824 69.9132 6.98978C70.0217 7.14761 70.091 7.17478 70.091 7.37991C70.091 7.54953 70.1851 7.65337 70.1943 7.81881C70.2134 8.16227 71.3467 8.01856 70.3779 8.5417C69.7469 8.88247 69.4332 9.18205 69.0325 9.76087C68.7962 10.1022 68.595 10.4989 68.2838 10.7878C68.0766 10.9802 67.8136 11.2085 67.5609 11.3415C67.1515 11.557 66.8259 11.8778 66.3733 12.0013" stroke="#17633D" stroke-width="2" stroke-linecap="round"/>
</svg>
