<svg width="40" height="40" viewBox="0 0 40 40" fill="none" xmlns="http://www.w3.org/2000/svg">
<path d="M0.450001 20C0.450001 30.7972 9.20283 39.55 20 39.55C30.7972 39.55 39.55 30.7972 39.55 20C39.55 9.20283 30.7972 0.45 20 0.45C9.20283 0.45 0.450001 9.20283 0.450001 20Z" fill="white" fill-opacity="0.8" stroke="#CCCCCC" stroke-width="0.9"/>
<path d="M22.6123 13.1765C22.7215 13.2919 22.7826 13.4468 22.7826 13.6081C22.7826 13.7695 22.7215 13.9244 22.6123 14.0398L16.5113 20.5L22.6123 26.9589C22.7215 27.0743 22.7826 27.2292 22.7826 27.3906C22.7826 27.5519 22.7215 27.7068 22.6123 27.8222C22.5592 27.8785 22.4957 27.9232 22.4256 27.9537C22.3555 27.9843 22.2802 28 22.2041 28C22.128 28 22.0527 27.9843 21.9826 27.9537C21.9125 27.9232 21.849 27.8785 21.796 27.8222L15.3081 20.951C15.1942 20.8303 15.1304 20.6685 15.1304 20.5C15.1304 20.3315 15.1942 20.1697 15.3081 20.049L21.796 13.1778C21.849 13.1215 21.9125 13.0768 21.9826 13.0463C22.0527 13.0157 22.128 13 22.2041 13C22.2802 13 22.3555 13.0157 22.4256 13.0463C22.4957 13.0768 22.5592 13.1215 22.6123 13.1778V13.1765Z" fill="#333333"/>
</svg>
