<svg width="40" height="40" viewBox="0 0 40 40" fill="none" xmlns="http://www.w3.org/2000/svg">
<path d="M39.55 20C39.55 30.7972 30.7972 39.55 20 39.55C9.20283 39.55 0.45 30.7972 0.45 20C0.45 9.20283 9.20283 0.45 20 0.45C30.7972 0.45 39.55 9.20283 39.55 20Z" fill="white" fill-opacity="0.8" stroke="#CCCCCC" stroke-width="0.9"/>
<path d="M17.3877 13.1765C17.2785 13.2919 17.2174 13.4468 17.2174 13.6081C17.2174 13.7695 17.2785 13.9244 17.3877 14.0398L23.4887 20.5L17.3877 26.9589C17.2785 27.0743 17.2174 27.2292 17.2174 27.3906C17.2174 27.5519 17.2785 27.7068 17.3877 27.8222C17.4408 27.8785 17.5043 27.9232 17.5744 27.9537C17.6445 27.9843 17.7198 28 17.7959 28C17.872 28 17.9473 27.9843 18.0174 27.9537C18.0875 27.9232 18.151 27.8785 18.204 27.8222L24.6919 20.951C24.8058 20.8303 24.8696 20.6685 24.8696 20.5C24.8696 20.3315 24.8058 20.1697 24.6919 20.049L18.204 13.1778C18.151 13.1215 18.0875 13.0768 18.0174 13.0463C17.9473 13.0157 17.872 13 17.7959 13C17.7198 13 17.6445 13.0157 17.5744 13.0463C17.5043 13.0768 17.4408 13.1215 17.3877 13.1778V13.1765Z" fill="#333333"/>
</svg>
