<svg xmlns="http://www.w3.org/2000/svg" width="55" height="55" fill="none"><path fill="#fff" d="M50.5 50c.46-.565-1.357-10.702-1.357-10.702a25.505 25.505 0 0 0 3.363-17.954c-1.135-6.186-4.524-11.758-9.537-15.679C37.957 1.745 31.663-.259 25.256.027 18.85.313 12.768 2.87 8.141 7.222 3.513 11.574.656 17.425.1 23.687c-.557 6.262 1.226 12.51 5.016 17.58 3.79 5.07 9.33 8.62 15.59 9.986a26.933 26.933 0 0 0 18.44-2.552S50.041 50.565 50.5 50Z"/><path fill="#17633D" d="M23.657 32.51v-.172c.021-1.826.236-3.279.646-4.359.409-1.08.99-1.955 1.745-2.624.754-.67 1.658-1.286 2.714-1.85a8.393 8.393 0 0 0 1.712-1.22 5.399 5.399 0 0 0 1.196-1.648c.302-.622.452-1.31.452-2.065 0-.937-.247-1.75-.743-2.438-.495-.689-1.158-1.22-1.987-1.592-.83-.373-1.75-.56-2.763-.56-.883 0-1.734.163-2.553.488a4.844 4.844 0 0 0-2.051 1.535c-.55.698-.867 1.61-.954 2.739H17c.086-1.625.56-3.017 1.422-4.173.872-1.157 2.02-2.041 3.441-2.653 1.433-.612 3.021-.918 4.766-.918 1.896 0 3.544.335 4.944 1.004 1.411.669 2.499 1.587 3.264 2.753.775 1.167 1.163 2.495 1.163 3.987 0 1.051-.183 2.003-.55 2.854a6.933 6.933 0 0 1-1.55 2.28c-.668.669-1.476 1.262-2.424 1.778-.948.526-1.707 1.08-2.278 1.663a5.103 5.103 0 0 0-1.244 2.051c-.258.793-.398 1.783-.42 2.968v.172h-3.877ZM25.724 41c-.797 0-1.48-.253-2.051-.76-.571-.507-.857-1.114-.857-1.821 0-.708.286-1.315.857-1.822.57-.506 1.254-.76 2.052-.76.796 0 1.48.254 2.051.76.571.507.857 1.114.857 1.822 0 .468-.135.898-.404 1.29a2.864 2.864 0 0 1-1.05.947c-.431.23-.916.344-1.454.344Z"/></svg>