<svg xmlns="http://www.w3.org/2000/svg" width="29" height="26" fill="none"><path fill="#333" d="M1.221.08C.549.08 0 .647 0 1.34c0 .694.55 1.262 1.221 1.262h2.71l3.205 13.24c.27 1.122 1.245 1.891 2.365 1.891h14.004c1.102 0 2.037-.754 2.328-1.852L29 3.863H8.547l.61 2.522h16.676l-2.328 8.826H9.501L6.296 1.971A2.508 2.508 0 0 0 5.43.604 2.372 2.372 0 0 0 3.932.08H1.22ZM21.98 17.733c-2.009 0-3.663 1.709-3.663 3.783S19.97 25.3 21.979 25.3s3.663-1.709 3.663-3.783-1.654-3.783-3.663-3.783Zm-10.99 0c-2.008 0-3.663 1.709-3.663 3.783S8.981 25.3 10.99 25.3c2.01 0 3.664-1.709 3.664-3.783s-1.655-3.783-3.664-3.783Zm0 2.522c.688 0 1.221.553 1.221 1.261 0 .71-.534 1.261-1.22 1.261-.688 0-1.222-.552-1.222-1.26 0-.71.535-1.262 1.221-1.262Zm10.99 0c.687 0 1.221.553 1.221 1.261 0 .71-.535 1.261-1.221 1.261-.688 0-1.221-.552-1.221-1.26 0-.71.535-1.262 1.22-1.262Z"/></svg>