<svg xmlns="http://www.w3.org/2000/svg" width="51" height="51" fill="none"><circle cx="25.5" cy="25.5" r="25.5" fill="#333" fill-opacity=".4"/><path fill="#fff" d="M10.221 13C9.55 13 9 13.568 9 14.261c0 .694.55 1.261 1.221 1.261h2.71l3.205 13.24c.27 1.122 1.245 1.891 2.365 1.891h14.004c1.102 0 2.037-.754 2.328-1.852L38 16.783H17.547l.61 2.522h16.676l-2.328 8.826H18.501l-3.205-13.24a2.508 2.508 0 0 0-.866-1.367A2.372 2.372 0 0 0 12.932 13h-2.71ZM30.98 30.653c-2.009 0-3.663 1.709-3.663 3.783 0 2.075 1.654 3.783 3.663 3.783s3.663-1.708 3.663-3.783c0-2.074-1.654-3.783-3.663-3.783Zm-10.99 0c-2.008 0-3.663 1.709-3.663 3.783 0 2.075 1.655 3.783 3.663 3.783 2.01 0 3.664-1.708 3.664-3.783 0-2.074-1.655-3.783-3.663-3.783Zm0 2.522c.688 0 1.221.553 1.221 1.261 0 .71-.534 1.261-1.22 1.261-.688 0-1.222-.552-1.222-1.26 0-.71.535-1.262 1.221-1.262Zm10.99 0c.687 0 1.221.553 1.221 1.261 0 .71-.535 1.261-1.221 1.261-.688 0-1.221-.552-1.221-1.26 0-.71.535-1.262 1.22-1.262Z"/></svg>