<svg xmlns="http://www.w3.org/2000/svg" width="22" height="26" fill="none"><path fill="#333" d="M15.698 13.78a11.216 11.216 0 0 1 4.457 4.062 12.083 12.083 0 0 1 1.842 5.904 1.53 1.53 0 0 1-.071.57 1.48 1.48 0 0 1-.275.496c-.122.145-.27.262-.435.345a1.318 1.318 0 0 1-1.53-.248 1.453 1.453 0 0 1-.317-.467 1.52 1.52 0 0 1-.121-.56c-.1-2.24-1.013-4.352-2.55-5.9-1.535-1.547-3.577-2.41-5.7-2.41-2.122 0-4.164.863-5.7 2.41-1.536 1.548-2.448 3.66-2.549 5.9a1.481 1.481 0 0 1-.457.985c-.269.252-.62.384-.98.366a1.346 1.346 0 0 1-.943-.461A1.5 1.5 0 0 1 0 23.746a12.083 12.083 0 0 1 1.84-5.904 11.214 11.214 0 0 1 4.457-4.061 7.81 7.81 0 0 1-2.384-3.93 8.162 8.162 0 0 1 .185-4.661 7.714 7.714 0 0 1 2.686-3.705A7.074 7.074 0 0 1 10.998.08c1.508 0 2.979.49 4.213 1.405a7.715 7.715 0 0 1 2.687 3.705 8.161 8.161 0 0 1 .184 4.662 7.808 7.808 0 0 1-2.384 3.929Zm-.112-5.954A4.986 4.986 0 0 0 14.243 4.4a4.468 4.468 0 0 0-3.244-1.42A4.47 4.47 0 0 0 7.754 4.4a4.986 4.986 0 0 0-1.343 3.426c0 1.285.483 2.517 1.343 3.425A4.468 4.468 0 0 0 11 12.671a4.47 4.47 0 0 0 3.244-1.42 4.986 4.986 0 0 0 1.343-3.425Z"/></svg>