<svg xmlns="http://www.w3.org/2000/svg" width="933.333" height="933.333" version="1.0" viewBox="0 0 700 700"><path d="M327.8.5c-.1.1-4.2.5-8.9.9s-9.5.8-10.5 1c-1 .2-4.1.7-6.9 1-33.5 4.4-71.5 15.8-103 31.2-18 8.7-44.8 24.7-55.5 33.1-.8.6-5.1 4-9.5 7.4-34.2 26.6-65 62.3-87.5 101.4-4.7 8.3-17 32.7-17 34 0 .3-.9 2.4-2 4.8-5.7 12.3-15.7 43.5-18.6 58.2-.2 1.1-1 5.4-1.9 9.5-2.9 14.7-3.6 20-5.2 37-1.5 16.5-.8 59.2 1.2 71.1.2 1.3.6 4.6.9 7.4.9 7.8 2.2 15.2 5.1 28.5 2.1 9.6 9.1 33.9 11.4 39.5.5 1.1 2.5 6.5 4.6 12 6.4 17 21.3 46.1 31.4 61.5 21.3 32.3 46.9 60.3 77.1 84.5 9.2 7.4 37 26.5 38.6 26.5.4 0 1.5.6 2.3 1.4 4.7 4.1 41.3 21.2 57.6 27 7.9 2.7 26.1 8.4 29.1 9 1 .2 5.7 1.3 10.4 2.5 10.9 2.6 20 4.3 29.9 5.7 2.5.3 5.7.8 7.1 1 16.2 2.5 68.3 2.5 84.1-.1 1.3-.2 4.7-.7 7.4-1 7.1-1 8.7-1.3 11.5-1.8 1.4-.3 4.3-.8 6.5-1.2 11.5-2.1 31.4-7.4 45.5-12.2 18.8-6.4 47.3-19.2 61.4-27.8 3.2-1.9 6.2-3.5 6.7-3.5s.9-.5.9-1c0-.6.5-1 1-1 1.5 0 22-14.1 33-22.7 15.2-11.8 32.4-28 45-42.2 3.6-4.1 7-7.9 7.6-8.5.6-.6 4.8-6.1 9.4-12.1 15-19.7 27.7-40.5 38.3-62.8 2.6-5.3 4.7-9.9 4.7-10.2 0-.2 1.1-2.8 2.4-5.7 5.7-12.7 15.1-42.1 18.2-57.3 1.7-8.1 5.4-30.1 5.9-35 .4-3.3.9-7.1 1.1-8.5.9-4.7 1.1-52.5.4-60.5-1.5-15.7-2.1-21-2.5-22.5-.2-.8-.7-3.5-1-6-1.7-12.9-8-38.4-13.6-55.2C647.1 135.2 565.1 53.1 461.5 18.2c-16.8-5.7-42-11.9-55.5-13.7-1.9-.3-4.6-.7-6-1-1.3-.2-5.2-.7-8.6-1.1-3.3-.3-7.4-.8-9-1-3.3-.5-54-1.4-54.6-.9z"/></svg>